<?xml version="1.0" encoding="utf-8" standalone="no"?>
<!DOCTYPE svg PUBLIC "-//W3C//DTD SVG 1.1//EN"
  "http://www.w3.org/Graphics/SVG/1.1/DTD/svg11.dtd">
<svg xmlns:xlink="http://www.w3.org/1999/xlink" width="556.383438pt" height="321.32pt" viewBox="0 0 556.383438 321.32" xmlns="http://www.w3.org/2000/svg" version="1.1">
 <metadata>
  <rdf:RDF xmlns:dc="http://purl.org/dc/elements/1.1/" xmlns:cc="http://creativecommons.org/ns#" xmlns:rdf="http://www.w3.org/1999/02/22-rdf-syntax-ns#">
   <cc:Work>
    <dc:type rdf:resource="http://purl.org/dc/dcmitype/StillImage"/>
    <dc:date>2023-07-01T04:25:05.217344</dc:date>
    <dc:format>image/svg+xml</dc:format>
    <dc:creator>
     <cc:Agent>
      <dc:title>Matplotlib v3.7.1, https://matplotlib.org/</dc:title>
     </cc:Agent>
    </dc:creator>
   </cc:Work>
  </rdf:RDF>
 </metadata>
 <defs>
  <style type="text/css">*{stroke-linejoin: round; stroke-linecap: butt}</style>
 </defs>
 <g id="figure_1">
  <g id="patch_1">
   <path d="M -0 321.32 
L 556.383438 321.32 
L 556.383438 0 
L -0 0 
L -0 321.32 
z
" style="fill: none"/>
  </g>
  <g id="axes_1">
   <g id="patch_2">
    <path d="M 123.373437 314.12 
L 549.183438 314.12 
L 549.183438 7.2 
L 123.373437 7.2 
L 123.373437 314.12 
z
" style="fill: none"/>
   </g>
   <g id="patch_3">
    <path d="M 123.373437 300.169091 
L 528.906771 300.169091 
L 528.906771 269.167071 
L 123.373437 269.167071 
z
" clip-path="url(#pcf36d9b382)" style="fill: #28203f"/>
   </g>
   <g id="patch_4">
    <path d="M 123.373437 238.165051 
L 290.357751 238.165051 
L 290.357751 207.16303 
L 123.373437 207.16303 
z
" clip-path="url(#pcf36d9b382)" style="fill: #28203f"/>
   </g>
   <g id="patch_5">
    <path d="M 123.373437 176.16101 
L 123.373437 176.16101 
L 123.373437 145.15899 
L 123.373437 145.15899 
z
" clip-path="url(#pcf36d9b382)" style="fill: #28203f"/>
   </g>
   <g id="patch_6">
    <path d="M 123.373437 114.15697 
L 433.487163 114.15697 
L 433.487163 83.154949 
L 123.373437 83.154949 
z
" clip-path="url(#pcf36d9b382)" style="fill: #28203f"/>
   </g>
   <g id="patch_7">
    <path d="M 123.373437 52.152929 
L 457.342065 52.152929 
L 457.342065 21.150909 
L 123.373437 21.150909 
z
" clip-path="url(#pcf36d9b382)" style="fill: #28203f"/>
   </g>
   <g id="matplotlib.axis_1"/>
   <g id="matplotlib.axis_2">
    <g id="ytick_1">
     <g id="line2d_1">
      <defs>
       <path id="m34839f67f6" d="M 0 0 
L -3.5 0 
" style="stroke: #000000; stroke-width: 0.8"/>
      </defs>
      <g>
       <use xlink:href="#m34839f67f6" x="123.373437" y="284.668081" style="stroke: #000000; stroke-width: 0.8"/>
      </g>
     </g>
     <g id="text_1">
      <!-- ELŻBIETA BAŁA -->
      <g transform="translate(39.989062 288.4673) scale(0.1 -0.1)">
       <defs>
        <path id="DejaVuSans-45" d="M 628 4666 
L 3578 4666 
L 3578 4134 
L 1259 4134 
L 1259 2753 
L 3481 2753 
L 3481 2222 
L 1259 2222 
L 1259 531 
L 3634 531 
L 3634 0 
L 628 0 
L 628 4666 
z
" transform="scale(0.015625)"/>
        <path id="DejaVuSans-4c" d="M 628 4666 
L 1259 4666 
L 1259 531 
L 3531 531 
L 3531 0 
L 628 0 
L 628 4666 
z
" transform="scale(0.015625)"/>
        <path id="DejaVuSans-17b" d="M 1873 5836 
L 2511 5836 
L 2511 5196 
L 1873 5196 
L 1873 5836 
z
M 359 4666 
L 4025 4666 
L 4025 4184 
L 1075 531 
L 4097 531 
L 4097 0 
L 288 0 
L 288 481 
L 3238 4134 
L 359 4134 
L 359 4666 
z
" transform="scale(0.015625)"/>
        <path id="DejaVuSans-42" d="M 1259 2228 
L 1259 519 
L 2272 519 
Q 2781 519 3026 730 
Q 3272 941 3272 1375 
Q 3272 1813 3026 2020 
Q 2781 2228 2272 2228 
L 1259 2228 
z
M 1259 4147 
L 1259 2741 
L 2194 2741 
Q 2656 2741 2882 2914 
Q 3109 3088 3109 3444 
Q 3109 3797 2882 3972 
Q 2656 4147 2194 4147 
L 1259 4147 
z
M 628 4666 
L 2241 4666 
Q 2963 4666 3353 4366 
Q 3744 4066 3744 3513 
Q 3744 3084 3544 2831 
Q 3344 2578 2956 2516 
Q 3422 2416 3680 2098 
Q 3938 1781 3938 1306 
Q 3938 681 3513 340 
Q 3088 0 2303 0 
L 628 0 
L 628 4666 
z
" transform="scale(0.015625)"/>
        <path id="DejaVuSans-49" d="M 628 4666 
L 1259 4666 
L 1259 0 
L 628 0 
L 628 4666 
z
" transform="scale(0.015625)"/>
        <path id="DejaVuSans-54" d="M -19 4666 
L 3928 4666 
L 3928 4134 
L 2272 4134 
L 2272 0 
L 1638 0 
L 1638 4134 
L -19 4134 
L -19 4666 
z
" transform="scale(0.015625)"/>
        <path id="DejaVuSans-41" d="M 2188 4044 
L 1331 1722 
L 3047 1722 
L 2188 4044 
z
M 1831 4666 
L 2547 4666 
L 4325 0 
L 3669 0 
L 3244 1197 
L 1141 1197 
L 716 0 
L 50 0 
L 1831 4666 
z
" transform="scale(0.015625)"/>
        <path id="DejaVuSans-20" transform="scale(0.015625)"/>
        <path id="DejaVuSans-141" d="M 659 4666 
L 1294 4666 
L 1294 2741 
L 2272 3425 
L 2522 3078 
L 1294 2222 
L 1294 531 
L 3566 531 
L 3566 0 
L 659 0 
L 659 1784 
L 197 1453 
L -44 1797 
L 659 2291 
L 659 4666 
z
" transform="scale(0.015625)"/>
       </defs>
       <use xlink:href="#DejaVuSans-45"/>
       <use xlink:href="#DejaVuSans-4c" x="63.183594"/>
       <use xlink:href="#DejaVuSans-17b" x="118.896484"/>
       <use xlink:href="#DejaVuSans-42" x="187.402344"/>
       <use xlink:href="#DejaVuSans-49" x="256.005859"/>
       <use xlink:href="#DejaVuSans-45" x="285.498047"/>
       <use xlink:href="#DejaVuSans-54" x="348.681641"/>
       <use xlink:href="#DejaVuSans-41" x="402.015625"/>
       <use xlink:href="#DejaVuSans-20" x="470.423828"/>
       <use xlink:href="#DejaVuSans-42" x="502.210938"/>
       <use xlink:href="#DejaVuSans-41" x="570.814453"/>
       <use xlink:href="#DejaVuSans-141" x="639.222656"/>
       <use xlink:href="#DejaVuSans-41" x="695.423828"/>
      </g>
     </g>
    </g>
    <g id="ytick_2">
     <g id="line2d_2">
      <g>
       <use xlink:href="#m34839f67f6" x="123.373437" y="222.66404" style="stroke: #000000; stroke-width: 0.8"/>
      </g>
     </g>
     <g id="text_2">
      <!-- KRZYSZTOF KAŁUŻNY -->
      <g transform="translate(7.2 226.463259) scale(0.1 -0.1)">
       <defs>
        <path id="DejaVuSans-4b" d="M 628 4666 
L 1259 4666 
L 1259 2694 
L 3353 4666 
L 4166 4666 
L 1850 2491 
L 4331 0 
L 3500 0 
L 1259 2247 
L 1259 0 
L 628 0 
L 628 4666 
z
" transform="scale(0.015625)"/>
        <path id="DejaVuSans-52" d="M 2841 2188 
Q 3044 2119 3236 1894 
Q 3428 1669 3622 1275 
L 4263 0 
L 3584 0 
L 2988 1197 
Q 2756 1666 2539 1819 
Q 2322 1972 1947 1972 
L 1259 1972 
L 1259 0 
L 628 0 
L 628 4666 
L 2053 4666 
Q 2853 4666 3247 4331 
Q 3641 3997 3641 3322 
Q 3641 2881 3436 2590 
Q 3231 2300 2841 2188 
z
M 1259 4147 
L 1259 2491 
L 2053 2491 
Q 2509 2491 2742 2702 
Q 2975 2913 2975 3322 
Q 2975 3731 2742 3939 
Q 2509 4147 2053 4147 
L 1259 4147 
z
" transform="scale(0.015625)"/>
        <path id="DejaVuSans-5a" d="M 359 4666 
L 4025 4666 
L 4025 4184 
L 1075 531 
L 4097 531 
L 4097 0 
L 288 0 
L 288 481 
L 3238 4134 
L 359 4134 
L 359 4666 
z
" transform="scale(0.015625)"/>
        <path id="DejaVuSans-59" d="M -13 4666 
L 666 4666 
L 1959 2747 
L 3244 4666 
L 3922 4666 
L 2272 2222 
L 2272 0 
L 1638 0 
L 1638 2222 
L -13 4666 
z
" transform="scale(0.015625)"/>
        <path id="DejaVuSans-53" d="M 3425 4513 
L 3425 3897 
Q 3066 4069 2747 4153 
Q 2428 4238 2131 4238 
Q 1616 4238 1336 4038 
Q 1056 3838 1056 3469 
Q 1056 3159 1242 3001 
Q 1428 2844 1947 2747 
L 2328 2669 
Q 3034 2534 3370 2195 
Q 3706 1856 3706 1288 
Q 3706 609 3251 259 
Q 2797 -91 1919 -91 
Q 1588 -91 1214 -16 
Q 841 59 441 206 
L 441 856 
Q 825 641 1194 531 
Q 1563 422 1919 422 
Q 2459 422 2753 634 
Q 3047 847 3047 1241 
Q 3047 1584 2836 1778 
Q 2625 1972 2144 2069 
L 1759 2144 
Q 1053 2284 737 2584 
Q 422 2884 422 3419 
Q 422 4038 858 4394 
Q 1294 4750 2059 4750 
Q 2388 4750 2728 4690 
Q 3069 4631 3425 4513 
z
" transform="scale(0.015625)"/>
        <path id="DejaVuSans-4f" d="M 2522 4238 
Q 1834 4238 1429 3725 
Q 1025 3213 1025 2328 
Q 1025 1447 1429 934 
Q 1834 422 2522 422 
Q 3209 422 3611 934 
Q 4013 1447 4013 2328 
Q 4013 3213 3611 3725 
Q 3209 4238 2522 4238 
z
M 2522 4750 
Q 3503 4750 4090 4092 
Q 4678 3434 4678 2328 
Q 4678 1225 4090 567 
Q 3503 -91 2522 -91 
Q 1538 -91 948 565 
Q 359 1222 359 2328 
Q 359 3434 948 4092 
Q 1538 4750 2522 4750 
z
" transform="scale(0.015625)"/>
        <path id="DejaVuSans-46" d="M 628 4666 
L 3309 4666 
L 3309 4134 
L 1259 4134 
L 1259 2759 
L 3109 2759 
L 3109 2228 
L 1259 2228 
L 1259 0 
L 628 0 
L 628 4666 
z
" transform="scale(0.015625)"/>
        <path id="DejaVuSans-55" d="M 556 4666 
L 1191 4666 
L 1191 1831 
Q 1191 1081 1462 751 
Q 1734 422 2344 422 
Q 2950 422 3222 751 
Q 3494 1081 3494 1831 
L 3494 4666 
L 4128 4666 
L 4128 1753 
Q 4128 841 3676 375 
Q 3225 -91 2344 -91 
Q 1459 -91 1007 375 
Q 556 841 556 1753 
L 556 4666 
z
" transform="scale(0.015625)"/>
        <path id="DejaVuSans-4e" d="M 628 4666 
L 1478 4666 
L 3547 763 
L 3547 4666 
L 4159 4666 
L 4159 0 
L 3309 0 
L 1241 3903 
L 1241 0 
L 628 0 
L 628 4666 
z
" transform="scale(0.015625)"/>
       </defs>
       <use xlink:href="#DejaVuSans-4b"/>
       <use xlink:href="#DejaVuSans-52" x="65.576172"/>
       <use xlink:href="#DejaVuSans-5a" x="135.058594"/>
       <use xlink:href="#DejaVuSans-59" x="203.564453"/>
       <use xlink:href="#DejaVuSans-53" x="264.648438"/>
       <use xlink:href="#DejaVuSans-5a" x="328.125"/>
       <use xlink:href="#DejaVuSans-54" x="396.630859"/>
       <use xlink:href="#DejaVuSans-4f" x="457.714844"/>
       <use xlink:href="#DejaVuSans-46" x="536.425781"/>
       <use xlink:href="#DejaVuSans-20" x="593.945312"/>
       <use xlink:href="#DejaVuSans-4b" x="625.732422"/>
       <use xlink:href="#DejaVuSans-41" x="689.558594"/>
       <use xlink:href="#DejaVuSans-141" x="757.966797"/>
       <use xlink:href="#DejaVuSans-55" x="814.167969"/>
       <use xlink:href="#DejaVuSans-17b" x="887.361328"/>
       <use xlink:href="#DejaVuSans-4e" x="955.867188"/>
       <use xlink:href="#DejaVuSans-59" x="1030.671875"/>
      </g>
     </g>
    </g>
    <g id="ytick_3">
     <g id="line2d_3">
      <g>
       <use xlink:href="#m34839f67f6" x="123.373437" y="160.66" style="stroke: #000000; stroke-width: 0.8"/>
      </g>
     </g>
     <g id="text_3">
      <!-- TOMASZ KOSZYK -->
      <g transform="translate(30.804687 164.459219) scale(0.1 -0.1)">
       <defs>
        <path id="DejaVuSans-4d" d="M 628 4666 
L 1569 4666 
L 2759 1491 
L 3956 4666 
L 4897 4666 
L 4897 0 
L 4281 0 
L 4281 4097 
L 3078 897 
L 2444 897 
L 1241 4097 
L 1241 0 
L 628 0 
L 628 4666 
z
" transform="scale(0.015625)"/>
       </defs>
       <use xlink:href="#DejaVuSans-54"/>
       <use xlink:href="#DejaVuSans-4f" x="61.083984"/>
       <use xlink:href="#DejaVuSans-4d" x="139.794922"/>
       <use xlink:href="#DejaVuSans-41" x="226.074219"/>
       <use xlink:href="#DejaVuSans-53" x="294.482422"/>
       <use xlink:href="#DejaVuSans-5a" x="357.958984"/>
       <use xlink:href="#DejaVuSans-20" x="426.464844"/>
       <use xlink:href="#DejaVuSans-4b" x="458.251953"/>
       <use xlink:href="#DejaVuSans-4f" x="518.328125"/>
       <use xlink:href="#DejaVuSans-53" x="597.039062"/>
       <use xlink:href="#DejaVuSans-5a" x="660.515625"/>
       <use xlink:href="#DejaVuSans-59" x="729.021484"/>
       <use xlink:href="#DejaVuSans-4b" x="790.105469"/>
      </g>
     </g>
    </g>
    <g id="ytick_4">
     <g id="line2d_4">
      <g>
       <use xlink:href="#m34839f67f6" x="123.373437" y="98.65596" style="stroke: #000000; stroke-width: 0.8"/>
      </g>
     </g>
     <g id="text_4">
      <!-- SZYMON WACŁAWSKI -->
      <g transform="translate(9.267187 102.455178) scale(0.1 -0.1)">
       <defs>
        <path id="DejaVuSans-57" d="M 213 4666 
L 850 4666 
L 1831 722 
L 2809 4666 
L 3519 4666 
L 4500 722 
L 5478 4666 
L 6119 4666 
L 4947 0 
L 4153 0 
L 3169 4050 
L 2175 0 
L 1381 0 
L 213 4666 
z
" transform="scale(0.015625)"/>
        <path id="DejaVuSans-43" d="M 4122 4306 
L 4122 3641 
Q 3803 3938 3442 4084 
Q 3081 4231 2675 4231 
Q 1875 4231 1450 3742 
Q 1025 3253 1025 2328 
Q 1025 1406 1450 917 
Q 1875 428 2675 428 
Q 3081 428 3442 575 
Q 3803 722 4122 1019 
L 4122 359 
Q 3791 134 3420 21 
Q 3050 -91 2638 -91 
Q 1578 -91 968 557 
Q 359 1206 359 2328 
Q 359 3453 968 4101 
Q 1578 4750 2638 4750 
Q 3056 4750 3426 4639 
Q 3797 4528 4122 4306 
z
" transform="scale(0.015625)"/>
       </defs>
       <use xlink:href="#DejaVuSans-53"/>
       <use xlink:href="#DejaVuSans-5a" x="63.476562"/>
       <use xlink:href="#DejaVuSans-59" x="131.982422"/>
       <use xlink:href="#DejaVuSans-4d" x="193.066406"/>
       <use xlink:href="#DejaVuSans-4f" x="279.345703"/>
       <use xlink:href="#DejaVuSans-4e" x="358.056641"/>
       <use xlink:href="#DejaVuSans-20" x="432.861328"/>
       <use xlink:href="#DejaVuSans-57" x="464.648438"/>
       <use xlink:href="#DejaVuSans-41" x="558.025391"/>
       <use xlink:href="#DejaVuSans-43" x="624.683594"/>
       <use xlink:href="#DejaVuSans-141" x="694.507812"/>
       <use xlink:href="#DejaVuSans-41" x="750.708984"/>
       <use xlink:href="#DejaVuSans-57" x="813.617188"/>
       <use xlink:href="#DejaVuSans-53" x="912.494141"/>
       <use xlink:href="#DejaVuSans-4b" x="975.970703"/>
       <use xlink:href="#DejaVuSans-49" x="1041.546875"/>
      </g>
     </g>
    </g>
    <g id="ytick_5">
     <g id="line2d_5">
      <g>
       <use xlink:href="#m34839f67f6" x="123.373437" y="36.651919" style="stroke: #000000; stroke-width: 0.8"/>
      </g>
     </g>
     <g id="text_5">
      <!-- BARTOSZ KŁOS -->
      <g transform="translate(39.69375 40.451138) scale(0.1 -0.1)">
       <use xlink:href="#DejaVuSans-42"/>
       <use xlink:href="#DejaVuSans-41" x="68.603516"/>
       <use xlink:href="#DejaVuSans-52" x="137.011719"/>
       <use xlink:href="#DejaVuSans-54" x="199.244141"/>
       <use xlink:href="#DejaVuSans-4f" x="260.328125"/>
       <use xlink:href="#DejaVuSans-53" x="339.039062"/>
       <use xlink:href="#DejaVuSans-5a" x="402.515625"/>
       <use xlink:href="#DejaVuSans-20" x="471.021484"/>
       <use xlink:href="#DejaVuSans-4b" x="502.808594"/>
       <use xlink:href="#DejaVuSans-141" x="568.384766"/>
       <use xlink:href="#DejaVuSans-4f" x="624.585938"/>
       <use xlink:href="#DejaVuSans-53" x="703.296875"/>
      </g>
     </g>
    </g>
   </g>
   <g id="text_6">
    <!-- 17 -->
    <g transform="translate(533.906771 287.427456) scale(0.1 -0.1)">
     <defs>
      <path id="DejaVuSans-Bold-31" d="M 750 831 
L 1813 831 
L 1813 3847 
L 722 3622 
L 722 4441 
L 1806 4666 
L 2950 4666 
L 2950 831 
L 4013 831 
L 4013 0 
L 750 0 
L 750 831 
z
" transform="scale(0.015625)"/>
      <path id="DejaVuSans-Bold-37" d="M 428 4666 
L 3944 4666 
L 3944 3988 
L 2125 0 
L 953 0 
L 2675 3781 
L 428 3781 
L 428 4666 
z
" transform="scale(0.015625)"/>
     </defs>
     <use xlink:href="#DejaVuSans-Bold-31"/>
     <use xlink:href="#DejaVuSans-Bold-37" x="69.580078"/>
    </g>
   </g>
   <g id="text_7">
    <!-- 7 -->
    <g transform="translate(295.357751 225.423415) scale(0.1 -0.1)">
     <use xlink:href="#DejaVuSans-Bold-37"/>
    </g>
   </g>
   <g id="text_8">
    <!-- 0 -->
    <g transform="translate(128.373437 163.419375) scale(0.1 -0.1)">
     <defs>
      <path id="DejaVuSans-Bold-30" d="M 2944 2338 
Q 2944 3213 2780 3570 
Q 2616 3928 2228 3928 
Q 1841 3928 1675 3570 
Q 1509 3213 1509 2338 
Q 1509 1453 1675 1090 
Q 1841 728 2228 728 
Q 2613 728 2778 1090 
Q 2944 1453 2944 2338 
z
M 4147 2328 
Q 4147 1169 3647 539 
Q 3147 -91 2228 -91 
Q 1306 -91 806 539 
Q 306 1169 306 2328 
Q 306 3491 806 4120 
Q 1306 4750 2228 4750 
Q 3147 4750 3647 4120 
Q 4147 3491 4147 2328 
z
" transform="scale(0.015625)"/>
     </defs>
     <use xlink:href="#DejaVuSans-Bold-30"/>
    </g>
   </g>
   <g id="text_9">
    <!-- 13 -->
    <g transform="translate(438.487163 101.415335) scale(0.1 -0.1)">
     <defs>
      <path id="DejaVuSans-Bold-33" d="M 2981 2516 
Q 3453 2394 3698 2092 
Q 3944 1791 3944 1325 
Q 3944 631 3412 270 
Q 2881 -91 1863 -91 
Q 1503 -91 1142 -33 
Q 781 25 428 141 
L 428 1069 
Q 766 900 1098 814 
Q 1431 728 1753 728 
Q 2231 728 2486 893 
Q 2741 1059 2741 1369 
Q 2741 1688 2480 1852 
Q 2219 2016 1709 2016 
L 1228 2016 
L 1228 2791 
L 1734 2791 
Q 2188 2791 2409 2933 
Q 2631 3075 2631 3366 
Q 2631 3634 2415 3781 
Q 2200 3928 1806 3928 
Q 1516 3928 1219 3862 
Q 922 3797 628 3669 
L 628 4550 
Q 984 4650 1334 4700 
Q 1684 4750 2022 4750 
Q 2931 4750 3382 4451 
Q 3834 4153 3834 3553 
Q 3834 3144 3618 2883 
Q 3403 2622 2981 2516 
z
" transform="scale(0.015625)"/>
     </defs>
     <use xlink:href="#DejaVuSans-Bold-31"/>
     <use xlink:href="#DejaVuSans-Bold-33" x="69.580078"/>
    </g>
   </g>
   <g id="text_10">
    <!-- 14 -->
    <g transform="translate(462.342065 39.411294) scale(0.1 -0.1)">
     <defs>
      <path id="DejaVuSans-Bold-34" d="M 2356 3675 
L 1038 1722 
L 2356 1722 
L 2356 3675 
z
M 2156 4666 
L 3494 4666 
L 3494 1722 
L 4159 1722 
L 4159 850 
L 3494 850 
L 3494 0 
L 2356 0 
L 2356 850 
L 288 850 
L 288 1881 
L 2156 4666 
z
" transform="scale(0.015625)"/>
     </defs>
     <use xlink:href="#DejaVuSans-Bold-31"/>
     <use xlink:href="#DejaVuSans-Bold-34" x="69.580078"/>
    </g>
   </g>
  </g>
 </g>
 <defs>
  <clipPath id="pcf36d9b382">
   <rect x="123.373437" y="7.2" width="425.81" height="306.92"/>
  </clipPath>
 </defs>
</svg>
