<?xml version="1.0" encoding="utf-8" standalone="no"?>
<!DOCTYPE svg PUBLIC "-//W3C//DTD SVG 1.1//EN"
  "http://www.w3.org/Graphics/SVG/1.1/DTD/svg11.dtd">
<svg xmlns:xlink="http://www.w3.org/1999/xlink" width="485.676338pt" height="338.4pt" viewBox="0 0 485.676338 338.4" xmlns="http://www.w3.org/2000/svg" version="1.1">
 <metadata>
  <rdf:RDF xmlns:dc="http://purl.org/dc/elements/1.1/" xmlns:cc="http://creativecommons.org/ns#" xmlns:rdf="http://www.w3.org/1999/02/22-rdf-syntax-ns#">
   <cc:Work>
    <dc:type rdf:resource="http://purl.org/dc/dcmitype/StillImage"/>
    <dc:date>2023-07-01T04:25:04.464358</dc:date>
    <dc:format>image/svg+xml</dc:format>
    <dc:creator>
     <cc:Agent>
      <dc:title>Matplotlib v3.7.1, https://matplotlib.org/</dc:title>
     </cc:Agent>
    </dc:creator>
   </cc:Work>
  </rdf:RDF>
 </metadata>
 <defs>
  <style type="text/css">*{stroke-linejoin: round; stroke-linecap: butt}</style>
 </defs>
 <g id="figure_1">
  <g id="patch_1">
   <path d="M 0 338.4 
L 485.676338 338.4 
L 485.676338 0 
L 0 0 
L 0 338.4 
z
" style="fill: none"/>
  </g>
  <g id="axes_1">
   <g id="patch_2">
    <path d="M 348.749932 169.2 
C 348.749932 145.790764 342.407428 122.813127 330.399094 102.718544 
C 318.39076 82.623961 301.159394 66.153406 280.543389 55.064101 
C 259.927384 43.974796 236.686941 38.675651 213.301552 39.732025 
C 189.916163 40.7884 167.248148 48.16134 147.715929 61.064237 
L 219.149932 169.2 
z
" style="fill: #e3bddd; stroke: #ffffff; stroke-width: 3; stroke-linejoin: miter"/>
   </g>
   <g id="patch_3">
    <path d="M 147.715929 61.064237 
C 132.31661 71.236958 119.266466 84.582765 109.441231 100.206081 
C 99.615995 115.829397 93.240472 133.372758 90.742494 151.65891 
C 88.244515 169.945062 89.681235 188.555614 94.956242 206.241698 
C 100.231249 223.927782 109.223849 240.284735 121.330592 254.21492 
L 219.149932 169.2 
z
" style="fill: #d3a6d1; stroke: #ffffff; stroke-width: 3; stroke-linejoin: miter"/>
   </g>
   <g id="patch_4">
    <path d="M 121.330592 254.21492 
C 138.246108 273.678147 160.59174 287.656954 185.493691 294.353575 
C 210.395641 301.050196 236.738577 300.164695 261.134619 291.810954 
L 219.149932 169.2 
z
" style="fill: #bf8fc3; stroke: #ffffff; stroke-width: 3; stroke-linejoin: miter"/>
   </g>
   <g id="patch_5">
    <path d="M 261.134619 291.810954 
C 273.05766 287.728243 284.321674 281.928131 294.570491 274.594019 
C 304.819308 267.259908 313.943752 258.469923 321.655306 248.502006 
L 219.149932 169.2 
z
" style="fill: #a87ab4; stroke: #ffffff; stroke-width: 3; stroke-linejoin: miter"/>
   </g>
   <g id="patch_6">
    <path d="M 321.655306 248.502006 
C 324.185894 245.230981 326.558461 241.8407 328.764861 238.342804 
C 330.971261 234.844907 333.008966 231.243403 334.87098 227.550656 
L 219.149932 169.2 
z
" style="fill: #8f66a3; stroke: #ffffff; stroke-width: 3; stroke-linejoin: miter"/>
   </g>
   <g id="patch_7">
    <path d="M 334.87098 227.550656 
C 336.191432 224.931934 337.422613 222.269145 338.562396 219.566888 
C 339.702179 216.864631 340.749907 214.124464 341.70377 211.351119 
L 219.149932 169.2 
z
" style="fill: #75538e; stroke: #ffffff; stroke-width: 3; stroke-linejoin: miter"/>
   </g>
   <g id="patch_8">
    <path d="M 341.70377 211.351119 
C 342.643322 208.619382 343.491276 205.856995 344.24621 203.068587 
C 345.001144 200.280178 345.662637 197.467308 346.229578 194.634691 
L 219.149932 169.2 
z
" style="fill: #5c4278; stroke: #ffffff; stroke-width: 3; stroke-linejoin: miter"/>
   </g>
   <g id="patch_9">
    <path d="M 346.229578 194.634691 
C 346.747588 192.046552 347.186411 189.443192 347.545433 186.828254 
C 347.904455 184.213316 348.183508 181.588021 348.382202 178.956041 
L 219.149932 169.2 
z
" style="fill: #42315d; stroke: #ffffff; stroke-width: 3; stroke-linejoin: miter"/>
   </g>
   <g id="patch_10">
    <path d="M 348.382202 178.956041 
C 348.504724 177.333065 348.596662 175.707925 348.657967 174.081486 
C 348.719271 172.455047 348.749932 170.827597 348.749932 169.200003 
L 219.149932 169.2 
z
" style="fill: #28203f; stroke: #ffffff; stroke-width: 3; stroke-linejoin: miter"/>
   </g>
   <g id="matplotlib.axis_1"/>
   <g id="matplotlib.axis_2"/>
   <g id="text_1">
    <!-- towarzyska -->
    <g style="fill: #e3bddd" transform="translate(286.682735 47.567761) scale(0.144 -0.144)">
     <defs>
      <path id="DejaVuSans-Bold-74" d="M 1759 4494 
L 1759 3500 
L 2913 3500 
L 2913 2700 
L 1759 2700 
L 1759 1216 
Q 1759 972 1856 886 
Q 1953 800 2241 800 
L 2816 800 
L 2816 0 
L 1856 0 
Q 1194 0 917 276 
Q 641 553 641 1216 
L 641 2700 
L 84 2700 
L 84 3500 
L 641 3500 
L 641 4494 
L 1759 4494 
z
" transform="scale(0.015625)"/>
      <path id="DejaVuSans-Bold-6f" d="M 2203 2784 
Q 1831 2784 1636 2517 
Q 1441 2250 1441 1747 
Q 1441 1244 1636 976 
Q 1831 709 2203 709 
Q 2569 709 2762 976 
Q 2956 1244 2956 1747 
Q 2956 2250 2762 2517 
Q 2569 2784 2203 2784 
z
M 2203 3584 
Q 3106 3584 3614 3096 
Q 4122 2609 4122 1747 
Q 4122 884 3614 396 
Q 3106 -91 2203 -91 
Q 1297 -91 786 396 
Q 275 884 275 1747 
Q 275 2609 786 3096 
Q 1297 3584 2203 3584 
z
" transform="scale(0.015625)"/>
      <path id="DejaVuSans-Bold-77" d="M 225 3500 
L 1313 3500 
L 1900 1088 
L 2491 3500 
L 3425 3500 
L 4013 1113 
L 4603 3500 
L 5691 3500 
L 4769 0 
L 3547 0 
L 2956 2406 
L 2369 0 
L 1147 0 
L 225 3500 
z
" transform="scale(0.015625)"/>
      <path id="DejaVuSans-Bold-61" d="M 2106 1575 
Q 1756 1575 1579 1456 
Q 1403 1338 1403 1106 
Q 1403 894 1545 773 
Q 1688 653 1941 653 
Q 2256 653 2472 879 
Q 2688 1106 2688 1447 
L 2688 1575 
L 2106 1575 
z
M 3816 1997 
L 3816 0 
L 2688 0 
L 2688 519 
Q 2463 200 2181 54 
Q 1900 -91 1497 -91 
Q 953 -91 614 226 
Q 275 544 275 1050 
Q 275 1666 698 1953 
Q 1122 2241 2028 2241 
L 2688 2241 
L 2688 2328 
Q 2688 2594 2478 2717 
Q 2269 2841 1825 2841 
Q 1466 2841 1156 2769 
Q 847 2697 581 2553 
L 581 3406 
Q 941 3494 1303 3539 
Q 1666 3584 2028 3584 
Q 2975 3584 3395 3211 
Q 3816 2838 3816 1997 
z
" transform="scale(0.015625)"/>
      <path id="DejaVuSans-Bold-72" d="M 3138 2547 
Q 2991 2616 2845 2648 
Q 2700 2681 2553 2681 
Q 2122 2681 1889 2404 
Q 1656 2128 1656 1613 
L 1656 0 
L 538 0 
L 538 3500 
L 1656 3500 
L 1656 2925 
Q 1872 3269 2151 3426 
Q 2431 3584 2822 3584 
Q 2878 3584 2943 3579 
Q 3009 3575 3134 3559 
L 3138 2547 
z
" transform="scale(0.015625)"/>
      <path id="DejaVuSans-Bold-7a" d="M 366 3500 
L 3419 3500 
L 3419 2719 
L 1575 800 
L 3419 800 
L 3419 0 
L 288 0 
L 288 781 
L 2131 2700 
L 366 2700 
L 366 3500 
z
" transform="scale(0.015625)"/>
      <path id="DejaVuSans-Bold-79" d="M 78 3500 
L 1197 3500 
L 2138 1125 
L 2938 3500 
L 4056 3500 
L 2584 -331 
Q 2363 -916 2067 -1148 
Q 1772 -1381 1288 -1381 
L 641 -1381 
L 641 -647 
L 991 -647 
Q 1275 -647 1404 -556 
Q 1534 -466 1606 -231 
L 1638 -134 
L 78 3500 
z
" transform="scale(0.015625)"/>
      <path id="DejaVuSans-Bold-73" d="M 3272 3391 
L 3272 2541 
Q 2913 2691 2578 2766 
Q 2244 2841 1947 2841 
Q 1628 2841 1473 2761 
Q 1319 2681 1319 2516 
Q 1319 2381 1436 2309 
Q 1553 2238 1856 2203 
L 2053 2175 
Q 2913 2066 3209 1816 
Q 3506 1566 3506 1031 
Q 3506 472 3093 190 
Q 2681 -91 1863 -91 
Q 1516 -91 1145 -36 
Q 775 19 384 128 
L 384 978 
Q 719 816 1070 734 
Q 1422 653 1784 653 
Q 2113 653 2278 743 
Q 2444 834 2444 1013 
Q 2444 1163 2330 1236 
Q 2216 1309 1875 1350 
L 1678 1375 
Q 931 1469 631 1722 
Q 331 1975 331 2491 
Q 331 3047 712 3315 
Q 1094 3584 1881 3584 
Q 2191 3584 2531 3537 
Q 2872 3491 3272 3391 
z
" transform="scale(0.015625)"/>
      <path id="DejaVuSans-Bold-6b" d="M 538 4863 
L 1656 4863 
L 1656 2216 
L 2944 3500 
L 4244 3500 
L 2534 1894 
L 4378 0 
L 3022 0 
L 1656 1459 
L 1656 0 
L 538 0 
L 538 4863 
z
" transform="scale(0.015625)"/>
     </defs>
     <use xlink:href="#DejaVuSans-Bold-74"/>
     <use xlink:href="#DejaVuSans-Bold-6f" x="47.802734"/>
     <use xlink:href="#DejaVuSans-Bold-77" x="116.503906"/>
     <use xlink:href="#DejaVuSans-Bold-61" x="208.886719"/>
     <use xlink:href="#DejaVuSans-Bold-72" x="276.367188"/>
     <use xlink:href="#DejaVuSans-Bold-7a" x="325.683594"/>
     <use xlink:href="#DejaVuSans-Bold-79" x="383.886719"/>
     <use xlink:href="#DejaVuSans-Bold-73" x="449.072266"/>
     <use xlink:href="#DejaVuSans-Bold-6b" x="508.59375"/>
     <use xlink:href="#DejaVuSans-Bold-61" x="575.097656"/>
    </g>
   </g>
   <g id="text_2">
    <!-- 34% -->
    <g style="fill: #ffffff" transform="translate(239.982881 104.691961) scale(0.144 -0.144)">
     <defs>
      <path id="DejaVuSans-33" d="M 2597 2516 
Q 3050 2419 3304 2112 
Q 3559 1806 3559 1356 
Q 3559 666 3084 287 
Q 2609 -91 1734 -91 
Q 1441 -91 1130 -33 
Q 819 25 488 141 
L 488 750 
Q 750 597 1062 519 
Q 1375 441 1716 441 
Q 2309 441 2620 675 
Q 2931 909 2931 1356 
Q 2931 1769 2642 2001 
Q 2353 2234 1838 2234 
L 1294 2234 
L 1294 2753 
L 1863 2753 
Q 2328 2753 2575 2939 
Q 2822 3125 2822 3475 
Q 2822 3834 2567 4026 
Q 2313 4219 1838 4219 
Q 1578 4219 1281 4162 
Q 984 4106 628 3988 
L 628 4550 
Q 988 4650 1302 4700 
Q 1616 4750 1894 4750 
Q 2613 4750 3031 4423 
Q 3450 4097 3450 3541 
Q 3450 3153 3228 2886 
Q 3006 2619 2597 2516 
z
" transform="scale(0.015625)"/>
      <path id="DejaVuSans-34" d="M 2419 4116 
L 825 1625 
L 2419 1625 
L 2419 4116 
z
M 2253 4666 
L 3047 4666 
L 3047 1625 
L 3713 1625 
L 3713 1100 
L 3047 1100 
L 3047 0 
L 2419 0 
L 2419 1100 
L 313 1100 
L 313 1709 
L 2253 4666 
z
" transform="scale(0.015625)"/>
      <path id="DejaVuSans-25" d="M 4653 2053 
Q 4381 2053 4226 1822 
Q 4072 1591 4072 1178 
Q 4072 772 4226 539 
Q 4381 306 4653 306 
Q 4919 306 5073 539 
Q 5228 772 5228 1178 
Q 5228 1588 5073 1820 
Q 4919 2053 4653 2053 
z
M 4653 2450 
Q 5147 2450 5437 2106 
Q 5728 1763 5728 1178 
Q 5728 594 5436 251 
Q 5144 -91 4653 -91 
Q 4153 -91 3862 251 
Q 3572 594 3572 1178 
Q 3572 1766 3864 2108 
Q 4156 2450 4653 2450 
z
M 1428 4353 
Q 1159 4353 1004 4120 
Q 850 3888 850 3481 
Q 850 3069 1003 2837 
Q 1156 2606 1428 2606 
Q 1700 2606 1854 2837 
Q 2009 3069 2009 3481 
Q 2009 3884 1853 4118 
Q 1697 4353 1428 4353 
z
M 4250 4750 
L 4750 4750 
L 1831 -91 
L 1331 -91 
L 4250 4750 
z
M 1428 4750 
Q 1922 4750 2215 4408 
Q 2509 4066 2509 3481 
Q 2509 2891 2217 2550 
Q 1925 2209 1428 2209 
Q 931 2209 642 2551 
Q 353 2894 353 3481 
Q 353 4063 643 4406 
Q 934 4750 1428 4750 
z
" transform="scale(0.015625)"/>
     </defs>
     <use xlink:href="#DejaVuSans-33"/>
     <use xlink:href="#DejaVuSans-34" x="63.623047"/>
     <use xlink:href="#DejaVuSans-25" x="127.246094"/>
    </g>
   </g>
   <g id="text_3">
    <!-- familijna -->
    <g style="fill: #d3a6d1" transform="translate(7.2 153.822051) scale(0.144 -0.144)">
     <defs>
      <path id="DejaVuSans-Bold-66" d="M 2841 4863 
L 2841 4128 
L 2222 4128 
Q 1984 4128 1890 4042 
Q 1797 3956 1797 3744 
L 1797 3500 
L 2753 3500 
L 2753 2700 
L 1797 2700 
L 1797 0 
L 678 0 
L 678 2700 
L 122 2700 
L 122 3500 
L 678 3500 
L 678 3744 
Q 678 4316 997 4589 
Q 1316 4863 1984 4863 
L 2841 4863 
z
" transform="scale(0.015625)"/>
      <path id="DejaVuSans-Bold-6d" d="M 3781 2919 
Q 3994 3244 4286 3414 
Q 4578 3584 4928 3584 
Q 5531 3584 5847 3212 
Q 6163 2841 6163 2131 
L 6163 0 
L 5038 0 
L 5038 1825 
Q 5041 1866 5042 1909 
Q 5044 1953 5044 2034 
Q 5044 2406 4934 2573 
Q 4825 2741 4581 2741 
Q 4263 2741 4089 2478 
Q 3916 2216 3909 1719 
L 3909 0 
L 2784 0 
L 2784 1825 
Q 2784 2406 2684 2573 
Q 2584 2741 2328 2741 
Q 2006 2741 1831 2477 
Q 1656 2213 1656 1722 
L 1656 0 
L 531 0 
L 531 3500 
L 1656 3500 
L 1656 2988 
Q 1863 3284 2130 3434 
Q 2397 3584 2719 3584 
Q 3081 3584 3359 3409 
Q 3638 3234 3781 2919 
z
" transform="scale(0.015625)"/>
      <path id="DejaVuSans-Bold-69" d="M 538 3500 
L 1656 3500 
L 1656 0 
L 538 0 
L 538 3500 
z
M 538 4863 
L 1656 4863 
L 1656 3950 
L 538 3950 
L 538 4863 
z
" transform="scale(0.015625)"/>
      <path id="DejaVuSans-Bold-6c" d="M 538 4863 
L 1656 4863 
L 1656 0 
L 538 0 
L 538 4863 
z
" transform="scale(0.015625)"/>
      <path id="DejaVuSans-Bold-6a" d="M 538 3500 
L 1656 3500 
L 1656 63 
Q 1656 -641 1318 -1011 
Q 981 -1381 341 -1381 
L -213 -1381 
L -213 -647 
L -19 -647 
Q 300 -647 419 -503 
Q 538 -359 538 63 
L 538 3500 
z
M 538 4863 
L 1656 4863 
L 1656 3950 
L 538 3950 
L 538 4863 
z
" transform="scale(0.015625)"/>
      <path id="DejaVuSans-Bold-6e" d="M 4056 2131 
L 4056 0 
L 2931 0 
L 2931 347 
L 2931 1631 
Q 2931 2084 2911 2256 
Q 2891 2428 2841 2509 
Q 2775 2619 2662 2680 
Q 2550 2741 2406 2741 
Q 2056 2741 1856 2470 
Q 1656 2200 1656 1722 
L 1656 0 
L 538 0 
L 538 3500 
L 1656 3500 
L 1656 2988 
Q 1909 3294 2193 3439 
Q 2478 3584 2822 3584 
Q 3428 3584 3742 3212 
Q 4056 2841 4056 2131 
z
" transform="scale(0.015625)"/>
     </defs>
     <use xlink:href="#DejaVuSans-Bold-66"/>
     <use xlink:href="#DejaVuSans-Bold-61" x="43.505859"/>
     <use xlink:href="#DejaVuSans-Bold-6d" x="110.986328"/>
     <use xlink:href="#DejaVuSans-Bold-69" x="215.185547"/>
     <use xlink:href="#DejaVuSans-Bold-6c" x="249.462891"/>
     <use xlink:href="#DejaVuSans-Bold-69" x="283.740234"/>
     <use xlink:href="#DejaVuSans-Bold-6a" x="318.017578"/>
     <use xlink:href="#DejaVuSans-Bold-6e" x="352.294922"/>
     <use xlink:href="#DejaVuSans-Bold-61" x="423.486328"/>
    </g>
   </g>
   <g id="text_4">
    <!-- 27% -->
    <g style="fill: #ffffff" transform="translate(126.102344 162.648846) scale(0.144 -0.144)">
     <defs>
      <path id="DejaVuSans-32" d="M 1228 531 
L 3431 531 
L 3431 0 
L 469 0 
L 469 531 
Q 828 903 1448 1529 
Q 2069 2156 2228 2338 
Q 2531 2678 2651 2914 
Q 2772 3150 2772 3378 
Q 2772 3750 2511 3984 
Q 2250 4219 1831 4219 
Q 1534 4219 1204 4116 
Q 875 4013 500 3803 
L 500 4441 
Q 881 4594 1212 4672 
Q 1544 4750 1819 4750 
Q 2544 4750 2975 4387 
Q 3406 4025 3406 3419 
Q 3406 3131 3298 2873 
Q 3191 2616 2906 2266 
Q 2828 2175 2409 1742 
Q 1991 1309 1228 531 
z
" transform="scale(0.015625)"/>
      <path id="DejaVuSans-37" d="M 525 4666 
L 3525 4666 
L 3525 4397 
L 1831 0 
L 1172 0 
L 2766 4134 
L 525 4134 
L 525 4666 
z
" transform="scale(0.015625)"/>
     </defs>
     <use xlink:href="#DejaVuSans-32"/>
     <use xlink:href="#DejaVuSans-37" x="63.623047"/>
     <use xlink:href="#DejaVuSans-25" x="127.246094"/>
    </g>
   </g>
   <g id="text_5">
    <!-- strategiczna -->
    <g style="fill: #bf8fc3" transform="translate(81.076067 310.786183) scale(0.144 -0.144)">
     <defs>
      <path id="DejaVuSans-Bold-65" d="M 4031 1759 
L 4031 1441 
L 1416 1441 
Q 1456 1047 1700 850 
Q 1944 653 2381 653 
Q 2734 653 3104 758 
Q 3475 863 3866 1075 
L 3866 213 
Q 3469 63 3072 -14 
Q 2675 -91 2278 -91 
Q 1328 -91 801 392 
Q 275 875 275 1747 
Q 275 2603 792 3093 
Q 1309 3584 2216 3584 
Q 3041 3584 3536 3087 
Q 4031 2591 4031 1759 
z
M 2881 2131 
Q 2881 2450 2695 2645 
Q 2509 2841 2209 2841 
Q 1884 2841 1681 2658 
Q 1478 2475 1428 2131 
L 2881 2131 
z
" transform="scale(0.015625)"/>
      <path id="DejaVuSans-Bold-67" d="M 2919 594 
Q 2688 288 2409 144 
Q 2131 0 1766 0 
Q 1125 0 706 504 
Q 288 1009 288 1791 
Q 288 2575 706 3076 
Q 1125 3578 1766 3578 
Q 2131 3578 2409 3434 
Q 2688 3291 2919 2981 
L 2919 3500 
L 4044 3500 
L 4044 353 
Q 4044 -491 3511 -936 
Q 2978 -1381 1966 -1381 
Q 1638 -1381 1331 -1331 
Q 1025 -1281 716 -1178 
L 716 -306 
Q 1009 -475 1290 -558 
Q 1572 -641 1856 -641 
Q 2406 -641 2662 -400 
Q 2919 -159 2919 353 
L 2919 594 
z
M 2181 2772 
Q 1834 2772 1640 2515 
Q 1447 2259 1447 1791 
Q 1447 1309 1634 1061 
Q 1822 813 2181 813 
Q 2531 813 2725 1069 
Q 2919 1325 2919 1791 
Q 2919 2259 2725 2515 
Q 2531 2772 2181 2772 
z
" transform="scale(0.015625)"/>
      <path id="DejaVuSans-Bold-63" d="M 3366 3391 
L 3366 2478 
Q 3138 2634 2908 2709 
Q 2678 2784 2431 2784 
Q 1963 2784 1702 2511 
Q 1441 2238 1441 1747 
Q 1441 1256 1702 982 
Q 1963 709 2431 709 
Q 2694 709 2930 787 
Q 3166 866 3366 1019 
L 3366 103 
Q 3103 6 2833 -42 
Q 2563 -91 2291 -91 
Q 1344 -91 809 395 
Q 275 881 275 1747 
Q 275 2613 809 3098 
Q 1344 3584 2291 3584 
Q 2566 3584 2833 3536 
Q 3100 3488 3366 3391 
z
" transform="scale(0.015625)"/>
     </defs>
     <use xlink:href="#DejaVuSans-Bold-73"/>
     <use xlink:href="#DejaVuSans-Bold-74" x="59.521484"/>
     <use xlink:href="#DejaVuSans-Bold-72" x="107.324219"/>
     <use xlink:href="#DejaVuSans-Bold-61" x="156.640625"/>
     <use xlink:href="#DejaVuSans-Bold-74" x="224.121094"/>
     <use xlink:href="#DejaVuSans-Bold-65" x="271.923828"/>
     <use xlink:href="#DejaVuSans-Bold-67" x="339.746094"/>
     <use xlink:href="#DejaVuSans-Bold-69" x="411.328125"/>
     <use xlink:href="#DejaVuSans-Bold-63" x="445.605469"/>
     <use xlink:href="#DejaVuSans-Bold-7a" x="504.882812"/>
     <use xlink:href="#DejaVuSans-Bold-6e" x="563.085938"/>
     <use xlink:href="#DejaVuSans-Bold-61" x="634.277344"/>
    </g>
   </g>
   <g id="text_6">
    <!-- 19% -->
    <g style="fill: #ffffff" transform="translate(182.953062 248.265645) scale(0.144 -0.144)">
     <defs>
      <path id="DejaVuSans-31" d="M 794 531 
L 1825 531 
L 1825 4091 
L 703 3866 
L 703 4441 
L 1819 4666 
L 2450 4666 
L 2450 531 
L 3481 531 
L 3481 0 
L 794 0 
L 794 531 
z
" transform="scale(0.015625)"/>
      <path id="DejaVuSans-39" d="M 703 97 
L 703 672 
Q 941 559 1184 500 
Q 1428 441 1663 441 
Q 2288 441 2617 861 
Q 2947 1281 2994 2138 
Q 2813 1869 2534 1725 
Q 2256 1581 1919 1581 
Q 1219 1581 811 2004 
Q 403 2428 403 3163 
Q 403 3881 828 4315 
Q 1253 4750 1959 4750 
Q 2769 4750 3195 4129 
Q 3622 3509 3622 2328 
Q 3622 1225 3098 567 
Q 2575 -91 1691 -91 
Q 1453 -91 1209 -44 
Q 966 3 703 97 
z
M 1959 2075 
Q 2384 2075 2632 2365 
Q 2881 2656 2881 3163 
Q 2881 3666 2632 3958 
Q 2384 4250 1959 4250 
Q 1534 4250 1286 3958 
Q 1038 3666 1038 3163 
Q 1038 2656 1286 2365 
Q 1534 2075 1959 2075 
z
" transform="scale(0.015625)"/>
     </defs>
     <use xlink:href="#DejaVuSans-31"/>
     <use xlink:href="#DejaVuSans-39" x="63.623047"/>
     <use xlink:href="#DejaVuSans-25" x="127.246094"/>
    </g>
   </g>
   <g id="text_7">
    <!-- logiczna -->
    <g style="fill: #a87ab4" transform="translate(302.112547 289.050671) scale(0.144 -0.144)">
     <use xlink:href="#DejaVuSans-Bold-6c"/>
     <use xlink:href="#DejaVuSans-Bold-6f" x="34.277344"/>
     <use xlink:href="#DejaVuSans-Bold-67" x="102.978516"/>
     <use xlink:href="#DejaVuSans-Bold-69" x="174.560547"/>
     <use xlink:href="#DejaVuSans-Bold-63" x="208.837891"/>
     <use xlink:href="#DejaVuSans-Bold-7a" x="268.115234"/>
     <use xlink:href="#DejaVuSans-Bold-6e" x="326.318359"/>
     <use xlink:href="#DejaVuSans-Bold-61" x="397.509766"/>
    </g>
   </g>
   <g id="text_8">
    <!-- 9% -->
    <g style="fill: #ffffff" transform="translate(252.980142 236.409912) scale(0.144 -0.144)">
     <use xlink:href="#DejaVuSans-39"/>
     <use xlink:href="#DejaVuSans-25" x="63.623047"/>
    </g>
   </g>
   <g id="text_9">
    <!-- zręcznościowa -->
    <g style="fill: #8f66a3" transform="translate(339.726354 249.430834) scale(0.144 -0.144)">
     <defs>
      <path id="DejaVuSans-Bold-119" d="M 2688 0 
L 3128 0 
Q 2972 -209 2912 -323 
Q 2853 -438 2853 -519 
Q 2853 -641 2945 -717 
Q 3038 -794 3191 -794 
Q 3313 -794 3433 -770 
Q 3553 -747 3678 -697 
L 3678 -1184 
Q 3506 -1219 3359 -1236 
Q 3213 -1253 3085 -1253 
Q 2725 -1253 2533 -1109 
Q 2341 -966 2341 -697 
Q 2341 -531 2425 -361 
Q 2510 -191 2688 0 
z
M 4031 1759 
L 4031 1441 
L 1416 1441 
Q 1456 1047 1700 850 
Q 1944 653 2381 653 
Q 2734 653 3104 758 
Q 3475 863 3866 1075 
L 3866 213 
Q 3469 63 3072 -14 
Q 2675 -91 2278 -91 
Q 1328 -91 801 392 
Q 275 875 275 1747 
Q 275 2603 792 3093 
Q 1309 3584 2216 3584 
Q 3041 3584 3536 3087 
Q 4031 2591 4031 1759 
z
M 2881 2131 
Q 2881 2450 2695 2645 
Q 2509 2841 2209 2841 
Q 1884 2841 1681 2658 
Q 1478 2475 1428 2131 
L 2881 2131 
z
" transform="scale(0.015625)"/>
      <path id="DejaVuSans-Bold-15b" d="M 2414 5119 
L 3298 5119 
L 2145 3944 
L 1533 3944 
L 2414 5119 
z
M 3272 3391 
L 3272 2541 
Q 2913 2691 2578 2766 
Q 2244 2841 1947 2841 
Q 1628 2841 1473 2761 
Q 1319 2681 1319 2516 
Q 1319 2381 1436 2309 
Q 1553 2238 1856 2203 
L 2053 2175 
Q 2913 2066 3209 1816 
Q 3506 1566 3506 1031 
Q 3506 472 3093 190 
Q 2681 -91 1863 -91 
Q 1516 -91 1145 -36 
Q 775 19 384 128 
L 384 978 
Q 719 816 1070 734 
Q 1422 653 1784 653 
Q 2113 653 2278 743 
Q 2444 834 2444 1013 
Q 2444 1163 2330 1236 
Q 2216 1309 1875 1350 
L 1678 1375 
Q 931 1469 631 1722 
Q 331 1975 331 2491 
Q 331 3047 712 3315 
Q 1094 3584 1881 3584 
Q 2191 3584 2531 3537 
Q 2872 3491 3272 3391 
z
" transform="scale(0.015625)"/>
     </defs>
     <use xlink:href="#DejaVuSans-Bold-7a"/>
     <use xlink:href="#DejaVuSans-Bold-72" x="58.203125"/>
     <use xlink:href="#DejaVuSans-Bold-119" x="107.519531"/>
     <use xlink:href="#DejaVuSans-Bold-63" x="175.341797"/>
     <use xlink:href="#DejaVuSans-Bold-7a" x="234.619141"/>
     <use xlink:href="#DejaVuSans-Bold-6e" x="292.822266"/>
     <use xlink:href="#DejaVuSans-Bold-6f" x="364.013672"/>
     <use xlink:href="#DejaVuSans-Bold-15b" x="432.714844"/>
     <use xlink:href="#DejaVuSans-Bold-63" x="492.236328"/>
     <use xlink:href="#DejaVuSans-Bold-69" x="551.513672"/>
     <use xlink:href="#DejaVuSans-Bold-6f" x="585.791016"/>
     <use xlink:href="#DejaVuSans-Bold-77" x="654.492188"/>
     <use xlink:href="#DejaVuSans-Bold-61" x="746.875"/>
    </g>
   </g>
   <g id="text_10">
    <!-- 3% -->
    <g style="fill: #ffffff" transform="translate(273.496764 214.659182) scale(0.144 -0.144)">
     <use xlink:href="#DejaVuSans-33"/>
     <use xlink:href="#DejaVuSans-25" x="63.623047"/>
    </g>
   </g>
   <g id="text_11">
    <!-- stretegiczna -->
    <g style="fill: #75538e" transform="translate(350.503642 228.520827) scale(0.144 -0.144)">
     <use xlink:href="#DejaVuSans-Bold-73"/>
     <use xlink:href="#DejaVuSans-Bold-74" x="59.521484"/>
     <use xlink:href="#DejaVuSans-Bold-72" x="107.324219"/>
     <use xlink:href="#DejaVuSans-Bold-65" x="156.640625"/>
     <use xlink:href="#DejaVuSans-Bold-74" x="224.462891"/>
     <use xlink:href="#DejaVuSans-Bold-65" x="272.265625"/>
     <use xlink:href="#DejaVuSans-Bold-67" x="340.087891"/>
     <use xlink:href="#DejaVuSans-Bold-69" x="411.669922"/>
     <use xlink:href="#DejaVuSans-Bold-63" x="445.947266"/>
     <use xlink:href="#DejaVuSans-Bold-7a" x="505.224609"/>
     <use xlink:href="#DejaVuSans-Bold-6e" x="563.427734"/>
     <use xlink:href="#DejaVuSans-Bold-61" x="634.619141"/>
    </g>
   </g>
   <g id="text_12">
    <!-- 2% -->
    <g style="fill: #ffffff" transform="translate(279.375285 203.393633) scale(0.144 -0.144)">
     <use xlink:href="#DejaVuSans-32"/>
     <use xlink:href="#DejaVuSans-25" x="63.623047"/>
    </g>
   </g>
   <g id="text_13">
    <!-- kolekcjonerska -->
    <g style="fill: #5c4278" transform="translate(356.755838 210.372695) scale(0.144 -0.144)">
     <use xlink:href="#DejaVuSans-Bold-6b"/>
     <use xlink:href="#DejaVuSans-Bold-6f" x="63.878906"/>
     <use xlink:href="#DejaVuSans-Bold-6c" x="132.580078"/>
     <use xlink:href="#DejaVuSans-Bold-65" x="166.857422"/>
     <use xlink:href="#DejaVuSans-Bold-6b" x="234.679688"/>
     <use xlink:href="#DejaVuSans-Bold-63" x="301.183594"/>
     <use xlink:href="#DejaVuSans-Bold-6a" x="360.460938"/>
     <use xlink:href="#DejaVuSans-Bold-6f" x="394.738281"/>
     <use xlink:href="#DejaVuSans-Bold-6e" x="463.439453"/>
     <use xlink:href="#DejaVuSans-Bold-65" x="534.630859"/>
     <use xlink:href="#DejaVuSans-Bold-72" x="602.453125"/>
     <use xlink:href="#DejaVuSans-Bold-73" x="651.769531"/>
     <use xlink:href="#DejaVuSans-Bold-6b" x="711.291016"/>
     <use xlink:href="#DejaVuSans-Bold-61" x="777.794922"/>
    </g>
   </g>
   <g id="text_14">
    <!-- 2% -->
    <g style="fill: #ffffff" transform="translate(282.785574 193.494652) scale(0.144 -0.144)">
     <use xlink:href="#DejaVuSans-32"/>
     <use xlink:href="#DejaVuSans-25" x="63.623047"/>
    </g>
   </g>
   <g id="text_15">
    <!-- narracyjna -->
    <g style="fill: #42315d" transform="translate(360.384983 192.50833) scale(0.144 -0.144)">
     <use xlink:href="#DejaVuSans-Bold-6e"/>
     <use xlink:href="#DejaVuSans-Bold-61" x="71.191406"/>
     <use xlink:href="#DejaVuSans-Bold-72" x="138.671875"/>
     <use xlink:href="#DejaVuSans-Bold-72" x="187.988281"/>
     <use xlink:href="#DejaVuSans-Bold-61" x="237.304688"/>
     <use xlink:href="#DejaVuSans-Bold-63" x="304.785156"/>
     <use xlink:href="#DejaVuSans-Bold-79" x="364.0625"/>
     <use xlink:href="#DejaVuSans-Bold-6a" x="429.248047"/>
     <use xlink:href="#DejaVuSans-Bold-6e" x="463.525391"/>
     <use xlink:href="#DejaVuSans-Bold-61" x="534.716797"/>
    </g>
   </g>
   <g id="text_16">
    <!-- 2% -->
    <g style="fill: #ffffff" transform="translate(284.765107 183.750453) scale(0.144 -0.144)">
     <use xlink:href="#DejaVuSans-32"/>
     <use xlink:href="#DejaVuSans-25" x="63.623047"/>
    </g>
   </g>
   <g id="text_17">
    <!-- przygodowa -->
    <g style="fill: #28203f" transform="translate(361.60877 178.486885) scale(0.144 -0.144)">
     <defs>
      <path id="DejaVuSans-Bold-70" d="M 1656 506 
L 1656 -1331 
L 538 -1331 
L 538 3500 
L 1656 3500 
L 1656 2988 
Q 1888 3294 2169 3439 
Q 2450 3584 2816 3584 
Q 3463 3584 3878 3070 
Q 4294 2556 4294 1747 
Q 4294 938 3878 423 
Q 3463 -91 2816 -91 
Q 2450 -91 2169 54 
Q 1888 200 1656 506 
z
M 2400 2772 
Q 2041 2772 1848 2508 
Q 1656 2244 1656 1747 
Q 1656 1250 1848 986 
Q 2041 722 2400 722 
Q 2759 722 2948 984 
Q 3138 1247 3138 1747 
Q 3138 2247 2948 2509 
Q 2759 2772 2400 2772 
z
" transform="scale(0.015625)"/>
      <path id="DejaVuSans-Bold-64" d="M 2919 2988 
L 2919 4863 
L 4044 4863 
L 4044 0 
L 2919 0 
L 2919 506 
Q 2688 197 2409 53 
Q 2131 -91 1766 -91 
Q 1119 -91 703 423 
Q 288 938 288 1747 
Q 288 2556 703 3070 
Q 1119 3584 1766 3584 
Q 2128 3584 2408 3439 
Q 2688 3294 2919 2988 
z
M 2181 722 
Q 2541 722 2730 984 
Q 2919 1247 2919 1747 
Q 2919 2247 2730 2509 
Q 2541 2772 2181 2772 
Q 1825 2772 1636 2509 
Q 1447 2247 1447 1747 
Q 1447 1247 1636 984 
Q 1825 722 2181 722 
z
" transform="scale(0.015625)"/>
     </defs>
     <use xlink:href="#DejaVuSans-Bold-70"/>
     <use xlink:href="#DejaVuSans-Bold-72" x="71.582031"/>
     <use xlink:href="#DejaVuSans-Bold-7a" x="120.898438"/>
     <use xlink:href="#DejaVuSans-Bold-79" x="179.101562"/>
     <use xlink:href="#DejaVuSans-Bold-67" x="244.287109"/>
     <use xlink:href="#DejaVuSans-Bold-6f" x="315.869141"/>
     <use xlink:href="#DejaVuSans-Bold-64" x="384.570312"/>
     <use xlink:href="#DejaVuSans-Bold-6f" x="456.152344"/>
     <use xlink:href="#DejaVuSans-Bold-77" x="524.853516"/>
     <use xlink:href="#DejaVuSans-Bold-61" x="617.236328"/>
    </g>
   </g>
   <g id="text_18">
    <!-- 1% -->
    <g style="fill: #ffffff" transform="translate(285.432628 176.102392) scale(0.144 -0.144)">
     <use xlink:href="#DejaVuSans-31"/>
     <use xlink:href="#DejaVuSans-25" x="63.623047"/>
    </g>
   </g>
  </g>
 </g>
</svg>
